<svg width="24" height="24" viewBox="0 0 24 24" fill="none" xmlns="http://www.w3.org/2000/svg">
<g clip-path="url(#clip0_3145_1333)">
<path d="M5.75 14C5.75 13.3333 5.78 12.6667 5.84 12C5.84298 11.9659 5.83922 11.9316 5.82892 11.899C5.81863 11.8664 5.802 11.8362 5.78 11.81C5.72974 11.7593 5.66142 11.7305 5.59 11.73H2.5C2.44504 11.7322 2.3922 11.7518 2.34908 11.7859C2.30595 11.8201 2.27476 11.867 2.26 11.92C2.08982 12.6003 2.00252 13.2987 2 14C1.99926 14.6982 2.08661 15.3937 2.26 16.07C2.27163 16.1247 2.30196 16.1735 2.34578 16.2082C2.38959 16.2429 2.44413 16.2612 2.5 16.26H5.59C5.66142 16.2595 5.72974 16.2307 5.78 16.18C5.82196 16.1297 5.84339 16.0654 5.84 16C5.78 15.3333 5.75 14.6667 5.75 14ZM13.65 12C13.6407 11.9399 13.6105 11.8849 13.5648 11.8447C13.5192 11.8045 13.4608 11.7816 13.4 11.78H7.6C7.53917 11.7816 7.48084 11.8045 7.43516 11.8447C7.38947 11.8849 7.35934 11.9399 7.35 12C7.29 12.64 7.25 13.32 7.25 14C7.25 14.68 7.25 15.39 7.35 16C7.35934 16.0601 7.38947 16.1151 7.43516 16.1553C7.48084 16.1955 7.53917 16.2184 7.6 16.22H13.4C13.4608 16.2184 13.5192 16.1955 13.5648 16.1553C13.6105 16.1151 13.6407 16.0601 13.65 16C13.71 15.36 13.75 14.68 13.75 14C13.75 13.32 13.71 12.61 13.65 12ZM18.49 16.25C18.5467 16.2499 18.6018 16.2313 18.6469 16.197C18.6921 16.1627 18.7247 16.1146 18.74 16.06C18.9077 15.386 18.9949 14.6945 19 14C18.9984 13.3092 18.9144 12.621 18.75 11.95C18.7352 11.897 18.704 11.8501 18.6609 11.8159C18.6178 11.7818 18.565 11.7622 18.51 11.76H15.41C15.3759 11.7592 15.3421 11.7659 15.311 11.7798C15.2799 11.7936 15.2522 11.8142 15.23 11.84C15.2046 11.8642 15.1851 11.8939 15.173 11.9269C15.1608 11.9598 15.1564 11.9951 15.16 12.03C15.22 12.6967 15.25 13.3633 15.25 14.03C15.25 14.6967 15.22 15.3633 15.16 16.03C15.1564 16.0649 15.1608 16.1002 15.173 16.1331C15.1851 16.1661 15.2046 16.1958 15.23 16.22C15.2522 16.2458 15.2799 16.2664 15.311 16.2802C15.3421 16.2941 15.3759 16.3008 15.41 16.3L18.49 16.25ZM7.9 17.75C7.86696 17.7509 7.83451 17.759 7.80486 17.7736C7.77521 17.7882 7.74905 17.809 7.72817 17.8346C7.7073 17.8602 7.69219 17.8901 7.68387 17.9221C7.67556 17.954 7.67424 17.9875 7.68 18.02C8.29 20.63 9.44 22.25 10.5 22.25C11.56 22.25 12.7 20.64 13.31 18.06C13.3204 18.0236 13.3213 17.9852 13.3125 17.9484C13.3038 17.9117 13.2857 17.8778 13.26 17.85C13.2373 17.8208 13.2086 17.7967 13.1758 17.7795C13.143 17.7622 13.107 17.7522 13.07 17.75H7.9ZM15.12 17.75C15.062 17.7507 15.0059 17.7707 14.9606 17.807C14.9153 17.8432 14.8834 17.8936 14.87 17.95C14.648 19.148 14.2432 20.3048 13.67 21.38C13.6445 21.4258 13.6341 21.4785 13.6402 21.5306C13.6463 21.5827 13.6686 21.6315 13.704 21.6702C13.7393 21.7089 13.786 21.7355 13.8373 21.7463C13.8887 21.757 13.9421 21.7513 13.99 21.73C15.652 20.9774 17.0292 19.7122 17.92 18.12C17.9419 18.082 17.9535 18.0389 17.9535 17.995C17.9535 17.9511 17.9419 17.908 17.92 17.87C17.8988 17.8332 17.8681 17.8027 17.8312 17.7816C17.7943 17.7605 17.7525 17.7496 17.71 17.75H15.12ZM6.13 18C6.11662 17.9436 6.08474 17.8932 6.03943 17.857C5.99413 17.8207 5.93801 17.8007 5.88 17.8H3.3C3.25751 17.7996 3.21567 17.8105 3.17878 17.8316C3.14188 17.8527 3.11125 17.8832 3.09 17.92C3.06806 17.958 3.05651 18.0011 3.05651 18.045C3.05651 18.0889 3.06806 18.132 3.09 18.17C3.98387 19.7404 5.35285 20.9869 7 21.73C7.04792 21.7513 7.10133 21.757 7.15266 21.7463C7.204 21.7355 7.25066 21.7089 7.28604 21.6702C7.32143 21.6315 7.34375 21.5827 7.34984 21.5306C7.35594 21.4785 7.3455 21.4258 7.32 21.38C6.755 20.3199 6.35379 19.1803 6.13 18ZM5.88 10.25C5.93801 10.2493 5.99413 10.2293 6.03943 10.193C6.08474 10.1568 6.11662 10.1064 6.13 10.05C6.35321 8.84454 6.76136 7.68081 7.34 6.6C7.37163 6.55828 7.38875 6.50736 7.38875 6.455C7.38875 6.40264 7.37163 6.35172 7.34 6.31C7.32199 6.28329 7.29878 6.26048 7.27176 6.24293C7.24474 6.22538 7.21446 6.21345 7.18273 6.20785C7.151 6.20225 7.11847 6.2031 7.08708 6.21034C7.05568 6.21758 7.02607 6.23107 7 6.25C5.33463 7.00725 3.95684 8.27987 3.07 9.88C3.04806 9.918 3.03651 9.96112 3.03651 10.005C3.03651 10.0489 3.04806 10.092 3.07 10.13C3.09125 10.1668 3.12188 10.1973 3.15878 10.2184C3.19567 10.2395 3.23751 10.2504 3.28 10.25H5.88ZM14.87 10.05C14.8834 10.1064 14.9153 10.1568 14.9606 10.193C15.0059 10.2293 15.062 10.2493 15.12 10.25H17.71C17.7525 10.2504 17.7943 10.2395 17.8312 10.2184C17.8681 10.1973 17.8988 10.1668 17.92 10.13C17.9419 10.092 17.9535 10.0489 17.9535 10.005C17.9535 9.96112 17.9419 9.918 17.92 9.88C17.0358 8.28146 15.6617 7.00902 14 6.25C13.9516 6.2278 13.8973 6.22165 13.8452 6.23244C13.793 6.24323 13.7456 6.27041 13.71 6.31C13.6799 6.35234 13.6637 6.40302 13.6637 6.455C13.6637 6.50698 13.6799 6.55766 13.71 6.6C14.2713 7.68371 14.6625 8.84732 14.87 10.05ZM11.58 6.27C11.5555 6.24889 11.5356 6.22284 11.5218 6.19354C11.5081 6.16425 11.5006 6.13237 11.5 6.1V1C11.5 0.734784 11.3946 0.48043 11.2071 0.292893C11.0196 0.105357 10.7652 0 10.5 0C10.2348 0 9.98043 0.105357 9.79289 0.292893C9.60536 0.48043 9.5 0.734784 9.5 1V6.1C9.49938 6.13237 9.49194 6.16425 9.47815 6.19354C9.46436 6.22284 9.44455 6.24889 9.42 6.27C8.53367 7.32186 7.93733 8.58692 7.69 9.94C7.67322 9.97424 7.6645 10.0119 7.6645 10.05C7.6645 10.0881 7.67322 10.1258 7.69 10.16C7.74292 10.2142 7.81436 10.2463 7.89 10.25H13.02C13.0577 10.2496 13.0948 10.2407 13.1286 10.2239C13.1624 10.2071 13.1919 10.1829 13.215 10.1531C13.2381 10.1232 13.2541 10.0886 13.2619 10.0517C13.2697 10.0148 13.2691 9.97661 13.26 9.94C13.0317 8.59045 12.4523 7.32474 11.58 6.27ZM18.75 6C18.9481 5.99741 19.1374 5.91756 19.2775 5.77747C19.4176 5.63737 19.4974 5.44811 19.5 5.25V4.75C19.5 4.6837 19.5263 4.62011 19.5732 4.57322C19.6201 4.52634 19.6837 4.5 19.75 4.5H20.25C20.4489 4.5 20.6397 4.42098 20.7803 4.28033C20.921 4.13968 21 3.94891 21 3.75C21 3.55109 20.921 3.36032 20.7803 3.21967C20.6397 3.07902 20.4489 3 20.25 3H19.75C19.6837 3 19.6201 2.97366 19.5732 2.92678C19.5263 2.87989 19.5 2.8163 19.5 2.75V2.25C19.5 2.05109 19.421 1.86032 19.2803 1.71967C19.1397 1.57902 18.9489 1.5 18.75 1.5C18.5511 1.5 18.3603 1.57902 18.2197 1.71967C18.079 1.86032 18 2.05109 18 2.25V2.75C18 2.8163 17.9737 2.87989 17.9268 2.92678C17.8799 2.97366 17.8163 3 17.75 3H17.25C17.0511 3 16.8603 3.07902 16.7197 3.21967C16.579 3.36032 16.5 3.55109 16.5 3.75C16.5 3.94891 16.579 4.13968 16.7197 4.28033C16.8603 4.42098 17.0511 4.5 17.25 4.5H17.75C17.8163 4.5 17.8799 4.52634 17.9268 4.57322C17.9737 4.62011 18 4.6837 18 4.75V5.25C18.0026 5.44811 18.0824 5.63737 18.2225 5.77747C18.3626 5.91756 18.5519 5.99741 18.75 6ZM23.25 20.5H22.25C22.1837 20.5 22.1201 20.4737 22.0732 20.4268C22.0263 20.3799 22 20.3163 22 20.25V19.25C22 19.0511 21.921 18.8603 21.7803 18.7197C21.6397 18.579 21.4489 18.5 21.25 18.5C21.0511 18.5 20.8603 18.579 20.7197 18.7197C20.579 18.8603 20.5 19.0511 20.5 19.25V20.25C20.5 20.3163 20.4737 20.3799 20.4268 20.4268C20.3799 20.4737 20.3163 20.5 20.25 20.5H19.25C19.0511 20.5 18.8603 20.579 18.7197 20.7197C18.579 20.8603 18.5 21.0511 18.5 21.25C18.5 21.4489 18.579 21.6397 18.7197 21.7803C18.8603 21.921 19.0511 22 19.25 22H20.25C20.3163 22 20.3799 22.0263 20.4268 22.0732C20.4737 22.1201 20.5 22.1837 20.5 22.25V23.25C20.5 23.4489 20.579 23.6397 20.7197 23.7803C20.8603 23.921 21.0511 24 21.25 24C21.4489 24 21.6397 23.921 21.7803 23.7803C21.921 23.6397 22 23.4489 22 23.25V22.25C22 22.1837 22.0263 22.1201 22.0732 22.0732C22.1201 22.0263 22.1837 22 22.25 22H23.25C23.4489 22 23.6397 21.921 23.7803 21.7803C23.921 21.6397 24 21.4489 24 21.25C24 21.0511 23.921 20.8603 23.7803 20.7197C23.6397 20.579 23.4489 20.5 23.25 20.5ZM3.75 4H3.25C3.1837 4 3.12011 3.97366 3.07322 3.92678C3.02634 3.87989 3 3.8163 3 3.75V3.25C3 3.05109 2.92098 2.86032 2.78033 2.71967C2.63968 2.57902 2.44891 2.5 2.25 2.5C2.05109 2.5 1.86032 2.57902 1.71967 2.71967C1.57902 2.86032 1.5 3.05109 1.5 3.25V3.75C1.5 3.8163 1.47366 3.87989 1.42678 3.92678C1.37989 3.97366 1.3163 4 1.25 4H0.75C0.551088 4 0.360322 4.07902 0.21967 4.21967C0.0790176 4.36032 0 4.55109 0 4.75C0 4.94891 0.0790176 5.13968 0.21967 5.28033C0.360322 5.42098 0.551088 5.5 0.75 5.5H1.25C1.3163 5.5 1.37989 5.52634 1.42678 5.57322C1.47366 5.62011 1.5 5.6837 1.5 5.75V6.25C1.5 6.44891 1.57902 6.63968 1.71967 6.78033C1.86032 6.92098 2.05109 7 2.25 7C2.44891 7 2.63968 6.92098 2.78033 6.78033C2.92098 6.63968 3 6.44891 3 6.25V5.75C3 5.6837 3.02634 5.62011 3.07322 5.57322C3.12011 5.52634 3.1837 5.5 3.25 5.5H3.75C3.94891 5.5 4.13968 5.42098 4.28033 5.28033C4.42098 5.13968 4.5 4.94891 4.5 4.75C4.5 4.55109 4.42098 4.36032 4.28033 4.21967C4.13968 4.07902 3.94891 4 3.75 4Z" fill="white"/>
</g>
<defs>
<clipPath id="clip0_3145_1333">
<rect width="24" height="24" fill="white"/>
</clipPath>
</defs>
</svg>
