<svg width="21" height="20" viewBox="0 0 21 20" fill="none" xmlns="http://www.w3.org/2000/svg">
<path d="M7.64998 20L7.24998 16.8C7.03331 16.7167 6.82931 16.6167 6.63798 16.5C6.44664 16.3833 6.25898 16.2583 6.07498 16.125L3.09998 17.375L0.349976 12.625L2.92498 10.675C2.90831 10.5583 2.89998 10.446 2.89998 10.338V9.663C2.89998 9.55433 2.90831 9.44167 2.92498 9.325L0.349976 7.375L3.09998 2.625L6.07498 3.875C6.25831 3.74167 6.44998 3.61667 6.64998 3.5C6.84998 3.38333 7.04998 3.28333 7.24998 3.2L7.64998 0H13.15L13.55 3.2C13.7666 3.28333 13.971 3.38333 14.163 3.5C14.355 3.61667 14.5423 3.74167 14.725 3.875L17.7 2.625L20.45 7.375L17.875 9.325C17.8916 9.44167 17.9 9.55433 17.9 9.663V10.337C17.9 10.4457 17.8833 10.5583 17.85 10.675L20.425 12.625L17.675 17.375L14.725 16.125C14.5416 16.2583 14.35 16.3833 14.15 16.5C13.95 16.6167 13.75 16.7167 13.55 16.8L13.15 20H7.64998ZM10.45 13.5C11.4166 13.5 12.2416 13.1583 12.925 12.475C13.6083 11.7917 13.95 10.9667 13.95 10C13.95 9.03333 13.6083 8.20833 12.925 7.525C12.2416 6.84167 11.4166 6.5 10.45 6.5C9.46664 6.5 8.63731 6.84167 7.96198 7.525C7.28664 8.20833 6.94931 9.03333 6.94998 10C6.95064 10.9667 7.28831 11.7917 7.96298 12.475C8.63764 13.1583 9.46664 13.5 10.45 13.5Z" fill="#F4F4F4"/>
</svg>
